<?xml version="1.0" encoding="UTF-8"?>
<svg width="95px" height="75px" viewBox="0 0 95 75" version="1.1" xmlns="http://www.w3.org/2000/svg" xmlns:xlink="http://www.w3.org/1999/xlink">
    <!-- Generator: Sketch 46.2 (44496) - http://www.bohemiancoding.com/sketch -->
    <title>icon-social-twitter-dark</title>
    <desc>Created with Sketch.</desc>
    <defs></defs>
    <g id="Icons" stroke="none" stroke-width="1" fill="none" fill-rule="evenodd">
        <g id="social-twitter-dark" stroke="#444444" stroke-width="2">
            <path d="M87.0534811,3.35363793 C83.6506235,5.38754891 80.0287088,6.97424671 75.9508199,7.65379258 C72.7823279,4.26006268 68.2382592,2 63.2513379,2 C53.7327404,2 45.7993002,9.91421885 45.7993002,19.8619851 C45.7993002,21.215623 46.0325723,22.5754419 46.2534519,23.9294435 C31.7497556,23.2549878 19.0502736,16.014861 10.4407086,5.38718532 C8.84461673,8.10064217 8.16849196,11.0409779 8.16849196,14.4347078 C8.16849196,20.541531 11.3493765,25.9691718 15.8810526,29.3567207 C12.9334402,29.3567207 10.4403441,28.4557498 7.9472479,27.0959309 L7.9472479,27.3228098 C7.9472479,35.9169381 13.8421082,43.1450665 21.9975215,44.7368545 C20.6339728,45.1782503 19.0495446,45.4113101 17.4658454,45.4113101 C16.3355689,45.4113101 15.1932643,45.4113101 14.2969889,45.1782503 C16.5568129,52.1984064 22.9058249,57.4046222 30.6070865,57.6245929 C24.7118617,62.3795961 17.2449658,65.318841 9.0775244,65.318841 C7.71397575,65.318841 6.36318416,65.318841 5,65.0854176 C12.7001681,70.0596643 21.7766419,73 31.7490266,73 C63.7047606,73 81.390435,45.8639771 81.390435,22.3471087 L81.390435,20.0866824 C84.7932926,17.6001045 87.7405405,14.4328899 90,10.8130083 C86.831508,12.1724636 83.4293794,13.2995862 80.0279798,13.5264651 C82.9755922,11.0409779 85.702325,7.65342899 87.0534811,3.35363793 Z" id="Page-1"></path>
        </g>
    </g>
</svg>