<?xml version="1.0" encoding="UTF-8"?>
<svg width="175px" height="175px" viewBox="0 0 175 175" version="1.1" xmlns="http://www.w3.org/2000/svg" xmlns:xlink="http://www.w3.org/1999/xlink">
    <!-- Generator: Sketch 45.2 (43514) - http://www.bohemiancoding.com/sketch -->
    <title>icon-coaching</title>
    <desc>Created with Sketch.</desc>
    <defs></defs>
    <g id="Symbols" stroke="none" stroke-width="1" fill="none" fill-rule="evenodd">
        <g id="icon-coaching" stroke="#5A7EFF" stroke-width="2">
            <path d="M32.8329789,46.6313152 C24.5659578,43.0636244 18.779661,34.8388991 18.779661,25.2627119 C18.779661,12.4150709 29.1947319,2 42.0423729,2 C54.8900139,2 65.3050847,12.4150709 65.3050847,25.2627119 C65.3050847,34.9542438 59.3785572,43.2615611 50.9519654,46.7582004 C68.3739086,51.663842 81.3220339,70.0581133 81.3220339,92 C79.7966102,92 2.76271186,92 2,92 C2,69.8642149 15.1779791,51.3390222 32.8329789,46.6313152 Z" id="Combined-Shape"></path>
            <path d="M124.832979,127.631315 C116.565958,124.063624 110.779661,115.838899 110.779661,106.262712 C110.779661,93.4150709 121.194732,83 134.042373,83 C146.890014,83 157.305085,93.4150709 157.305085,106.262712 C157.305085,115.954244 151.378557,124.261561 142.951965,127.7582 C160.373909,132.663842 173.322034,151.058113 173.322034,173 C171.79661,173 94.7627119,173 94,173 C94,150.864215 107.177979,132.339022 124.832979,127.631315 Z" id="Combined-Shape-Copy"></path>
            <g id="Group" transform="translate(27.000000, 115.000000)">
                <path d="M0,0 C0,15.7401154 12.7598846,28.5 28.5,28.5 L42.5262976,28.5" id="Oval-2"></path>
                <polyline id="Rectangle-2" transform="translate(30.727922, 28.727922) rotate(-45.000000) translate(-30.727922, -28.727922) " points="39.7279221 19.7279221 39.7279221 37.7279221 21.7279221 37.7279221"></polyline>
            </g>
            <g id="Group" transform="translate(122.000000, 34.000000) scale(-1, -1) translate(-122.000000, -34.000000) translate(100.000000, 13.000000)">
                <path d="M0,0 C0,15.7401154 12.7598846,28.5 28.5,28.5 L42.5262976,28.5" id="Oval-2"></path>
                <polyline id="Rectangle-2" transform="translate(30.727922, 28.727922) rotate(-45.000000) translate(-30.727922, -28.727922) " points="39.7279221 19.7279221 39.7279221 37.7279221 21.7279221 37.7279221"></polyline>
            </g>
        </g>
    </g>
</svg>