<?xml version="1.0" encoding="UTF-8"?>
<svg width="175px" height="175px" viewBox="0 0 175 175" version="1.1" xmlns="http://www.w3.org/2000/svg" xmlns:xlink="http://www.w3.org/1999/xlink">
    <!-- Generator: Sketch 45.2 (43514) - http://www.bohemiancoding.com/sketch -->
    <title>icon-research</title>
    <desc>Created with Sketch.</desc>
    <defs></defs>
    <g id="Symbols" stroke="none" stroke-width="1" fill="none" fill-rule="evenodd">
        <g id="icon-research" stroke-width="2" stroke="#5A7EFF">
            <g id="Group-2" transform="translate(62.000000, 19.000000)">
                <polyline id="Rectangle" transform="translate(56.094720, 68.014848) scale(-1, 1) translate(-56.094720, -68.014848) " points="112.189439 95 112.189439 136.029695 0 136.029695 0 0 112.189439 0 112.189439 20"></polyline>
                <g id="Group" transform="translate(20.000000, 27.000000)">
                    <path d="M7.99800209,1.5 L70.5642562,1.5" id="Line"></path>
                    <path d="M20.992995,28.1666667 L70.5642562,28.1666667" id="Line-Copy"></path>
                    <path d="M13,54.8333333 L70.5642562,54.8333333" id="Line-Copy-2"></path>
                    <path d="M0.5,81.5 L49.0643902,81.5" id="Line-Copy-3"></path>
                </g>
            </g>
            <g id="Group-3" transform="translate(50.942911, 91.942911) rotate(45.000000) translate(-50.942911, -91.942911) translate(13.442911, 31.942911)">
                <circle id="Oval-4" cx="37.2815927" cy="37.6958063" r="37.2815927"></circle>
                <polyline id="Rectangle-2" points="47 74 47 120 28 120 28 74 28 74"></polyline>
            </g>
        </g>
    </g>
</svg>